<svg id="svg" version="1.1" xmlns="http://www.w3.org/2000/svg" xmlns:xlink="http://www.w3.org/1999/xlink" width="400" height="400" viewBox="0, 0, 400,400"><g id="svgg"><path id="path0" d="M233.635 37.793 C 232.271 38.599,229.723 40.400,227.974 41.797 C 215.581 51.692,215.061 51.892,205.664 50.403 C 202.247 49.862,200.575 50.122,196.875 51.773 C 185.973 56.635,184.576 56.590,177.678 51.148 C 173.539 47.883,173.215 47.793,172.001 49.569 C 170.663 51.526,170.789 52.908,172.363 53.542 C 173.062 53.824,175.237 55.687,177.198 57.682 C 180.878 61.428,181.734 61.985,184.013 62.113 C 186.164 62.234,186.227 62.191,186.496 60.397 C 186.892 57.754,187.414 57.495,192.383 57.465 C 198.432 57.429,199.603 58.104,199.614 61.639 C 199.617 62.435,199.948 64.428,200.351 66.069 C 200.940 68.466,201.004 69.399,200.680 70.815 C 200.137 73.188,200.390 73.635,202.709 74.406 C 204.296 74.933,205.023 75.491,206.350 77.201 C 207.302 78.428,208.871 79.834,210.038 80.506 C 211.154 81.148,212.174 82.010,212.305 82.421 C 212.652 83.516,214.761 85.156,215.820 85.156 C 217.098 85.156,219.039 86.902,219.307 88.292 C 219.430 88.931,219.637 89.997,219.766 90.661 C 220.017 91.959,221.698 92.969,223.607 92.969 C 224.143 92.969,225.197 93.508,225.948 94.168 L 227.314 95.368 234.781 95.268 C 244.239 95.143,243.930 94.866,241.385 101.179 C 239.210 106.573,239.295 108.180,241.797 108.915 C 244.490 109.706,246.455 110.611,248.156 111.843 C 255.026 116.819,270.694 123.094,274.581 122.426 C 282.146 121.124,289.895 115.570,293.750 108.688 C 294.502 107.346,295.746 105.391,296.515 104.346 C 297.284 103.300,298.406 101.499,299.008 100.343 C 302.122 94.372,302.341 94.214,308.984 93.128 C 311.157 92.773,315.534 98.882,321.536 110.648 C 323.910 115.301,328.296 126.984,329.345 131.445 C 329.800 133.379,330.492 136.191,330.885 137.695 C 332.614 144.321,332.811 149.499,331.484 153.402 C 330.380 156.646,330.141 157.043,325.790 162.816 C 320.732 169.529,320.631 169.724,320.899 172.336 C 321.453 177.742,305.503 202.279,300.099 204.333 C 299.615 204.517,299.219 204.936,299.219 205.264 C 299.219 205.591,299.031 205.859,298.802 205.859 C 298.569 205.859,298.490 205.529,298.622 205.111 C 298.753 204.699,298.677 204.250,298.453 204.111 C 297.561 203.560,298.085 201.130,299.820 197.770 C 300.795 195.881,301.880 193.203,302.230 191.818 C 302.802 189.560,303.126 189.056,305.366 186.935 C 310.440 182.132,311.883 178.151,308.557 178.131 C 306.822 178.121,305.135 175.310,305.095 172.363 C 305.060 169.746,302.666 170.919,299.509 175.101 C 298.720 176.146,297.150 177.179,293.649 178.957 C 291.019 180.293,287.813 181.927,286.523 182.588 L 284.180 183.789 277.539 183.711 C 273.887 183.668,268.686 183.423,265.981 183.165 C 260.390 182.634,258.809 182.941,251.758 185.925 C 243.231 189.534,237.041 188.856,230.469 183.593 C 224.831 179.079,223.182 178.984,219.830 182.981 C 217.940 185.235,217.391 186.248,216.547 189.036 C 215.990 190.877,214.940 193.454,214.213 194.764 C 213.485 196.074,212.891 197.458,212.891 197.840 C 212.891 198.222,212.430 199.562,211.867 200.816 C 210.632 203.568,210.787 204.102,213.125 205.136 L 214.932 205.935 217.525 205.038 C 221.973 203.498,227.028 203.695,229.735 205.513 C 232.649 207.471,235.938 207.683,235.938 205.912 C 235.938 205.704,236.685 205.286,237.598 204.983 C 239.000 204.518,239.337 204.194,239.765 202.900 C 240.450 200.831,240.910 200.446,243.504 199.769 C 244.804 199.429,246.553 198.564,247.712 197.686 C 252.719 193.896,258.084 194.021,262.319 198.025 C 264.355 199.951,264.757 200.110,268.677 200.532 C 271.763 200.864,274.325 202.480,277.227 205.925 C 282.635 212.344,284.290 214.999,288.383 223.828 C 290.397 228.171,290.984 229.056,293.697 231.836 C 295.374 233.555,297.318 235.708,298.015 236.621 C 301.325 240.950,305.912 236.338,304.397 230.205 C 303.250 225.562,304.270 221.567,307.173 219.333 C 307.847 218.814,309.396 217.635,310.614 216.714 C 311.833 215.793,314.558 213.704,316.669 212.073 C 326.012 204.854,336.872 197.990,347.070 192.860 C 356.876 187.926,357.822 183.959,349.055 184.536 C 337.024 185.327,338.310 185.388,336.157 183.926 C 333.673 182.241,333.648 182.077,335.529 179.903 C 337.221 177.949,337.336 177.506,336.700 175.388 C 336.239 173.852,336.536 170.644,338.115 160.110 L 339.088 153.618 338.135 150.698 C 337.611 149.093,336.627 145.070,335.950 141.760 C 331.658 120.798,325.215 104.740,315.171 89.966 C 314.559 89.067,313.780 87.221,313.439 85.865 C 312.624 82.618,312.161 81.965,309.691 80.571 C 307.218 79.175,298.523 70.347,297.502 68.195 C 296.931 66.991,296.857 66.176,297.077 63.527 C 297.424 59.362,297.031 58.898,294.015 59.913 C 291.627 60.716,291.127 60.756,288.231 60.371 C 286.855 60.188,285.941 60.225,285.789 60.471 C 285.262 61.324,287.054 65.731,288.551 67.264 L 290.039 68.788 290.078 75.312 C 290.114 81.127,290.225 82.176,291.100 84.961 C 295.626 99.356,294.249 105.624,285.580 110.083 C 284.380 110.700,282.168 111.999,280.664 112.969 C 275.213 116.485,269.171 117.652,266.016 115.798 C 263.623 114.393,264.068 113.422,267.992 111.489 C 273.436 108.808,274.681 106.927,275.338 100.391 C 275.565 98.135,276.197 94.227,276.742 91.706 C 278.060 85.619,278.062 80.828,276.747 80.323 C 275.954 80.019,271.266 81.964,269.210 83.450 C 266.005 85.766,265.851 85.800,264.034 84.598 C 263.148 84.012,261.374 83.337,260.090 83.098 C 258.294 82.764,257.561 82.413,256.906 81.573 C 256.438 80.973,255.655 79.962,255.166 79.328 C 254.527 78.498,253.508 77.931,251.538 77.309 C 246.993 75.874,246.822 75.520,246.115 66.016 C 245.712 60.603,245.094 57.283,242.623 47.266 C 242.013 44.795,241.303 41.769,241.045 40.541 C 240.144 36.260,237.740 35.369,233.635 37.793 M233.136 46.800 C 233.206 47.296,232.977 48.139,232.626 48.674 C 231.466 50.444,232.214 53.303,234.089 54.270 C 237.871 56.219,241.299 62.070,240.858 65.820 C 240.732 66.895,240.470 69.371,240.278 71.324 C 240.024 73.890,239.586 75.651,238.698 77.674 L 237.470 80.474 238.840 83.255 C 240.814 87.263,239.664 88.593,234.576 88.185 C 229.841 87.805,228.561 86.242,226.583 78.422 C 225.737 75.079,224.865 72.802,223.366 70.023 C 221.770 67.063,221.255 65.675,221.062 63.813 C 220.848 61.750,220.633 61.255,219.527 60.266 C 217.902 58.814,218.037 58.153,220.801 54.033 C 224.347 48.748,232.716 43.840,233.136 46.800 M112.500 74.974 C 112.500 79.601,112.563 80.045,113.245 80.262 C 113.801 80.438,114.154 81.232,114.632 83.382 C 115.473 87.163,116.212 87.837,116.829 85.387 C 117.077 84.401,117.479 83.573,117.722 83.549 C 117.965 83.524,118.428 83.480,118.750 83.451 C 120.200 83.321,119.054 74.323,117.326 72.269 C 113.889 68.185,112.500 68.964,112.500 74.974 M296.891 75.488 C 298.618 76.653,302.412 81.316,303.739 83.906 C 305.328 87.007,304.218 89.684,300.238 92.344 C 297.020 94.495,295.068 93.148,293.964 88.011 C 293.604 86.333,293.061 84.170,292.759 83.203 C 290.777 76.863,292.940 72.824,296.891 75.488 M255.531 93.738 C 259.176 95.123,261.333 98.171,259.401 99.205 C 256.894 100.547,249.609 97.575,249.609 95.211 C 249.609 92.996,252.008 92.399,255.531 93.738 M305.185 98.250 C 304.095 99.014,303.263 101.263,302.776 104.759 C 302.551 106.376,302.201 108.137,301.998 108.672 C 301.638 109.617,301.675 109.643,303.312 109.607 C 306.450 109.539,306.996 110.653,309.008 121.224 C 310.327 128.151,310.673 128.836,312.169 127.489 C 313.320 126.452,312.995 120.720,311.395 113.840 C 310.742 111.032,309.937 107.186,309.607 105.294 C 308.633 99.716,306.941 97.020,305.185 98.250 M208.511 124.198 C 206.266 125.969,206.784 129.065,209.314 128.994 C 211.261 128.938,216.016 126.235,216.016 125.184 C 216.016 123.863,209.946 123.065,208.511 124.198 M186.011 124.100 C 184.010 124.498,184.638 126.275,187.012 126.930 C 188.632 127.378,189.844 126.901,189.844 125.815 C 189.844 124.529,188.001 123.704,186.011 124.100 M226.457 133.005 C 223.930 135.089,222.268 137.234,220.263 140.998 C 217.029 147.070,206.933 146.027,205.904 139.515 C 205.216 135.163,202.805 133.227,201.569 136.035 C 199.995 139.612,200.060 139.886,203.040 142.267 C 203.759 142.841,203.842 143.202,203.643 144.882 C 203.391 147.007,203.465 147.119,207.145 150.260 C 208.888 151.747,208.981 152.746,207.617 155.311 C 206.896 156.667,206.641 157.745,206.641 159.433 C 206.641 160.879,206.229 162.998,205.521 165.199 C 203.939 170.118,204.701 170.619,210.935 168.754 C 214.371 167.727,216.134 167.628,217.852 168.368 C 219.808 169.211,220.458 168.324,221.685 163.146 C 222.506 159.683,223.185 157.947,224.996 154.688 C 227.646 149.917,229.039 145.755,230.125 139.364 C 231.617 130.577,230.903 129.338,226.457 133.005 M262.196 136.546 C 260.752 137.557,261.129 138.024,263.162 137.745 C 265.034 137.489,265.957 136.781,265.116 136.247 C 264.361 135.766,263.129 135.893,262.196 136.546 M249.525 136.932 C 248.789 137.671,251.691 140.813,254.426 142.237 C 256.366 143.248,259.766 142.757,259.766 141.467 C 259.766 139.427,250.935 135.516,249.525 136.932 M319.855 139.247 C 316.425 141.997,313.069 142.969,306.994 142.969 C 304.251 142.969,300.028 144.877,296.483 147.717 C 295.318 148.651,293.310 150.117,292.020 150.977 C 289.874 152.407,287.616 154.933,288.074 155.392 C 288.340 155.657,293.862 153.225,296.680 151.602 C 302.092 148.485,302.231 148.438,305.948 148.438 C 310.542 148.438,314.758 147.731,316.211 146.716 C 317.079 146.111,317.924 145.912,319.470 145.950 L 321.558 146.002 322.697 143.464 C 325.147 138.002,323.835 136.054,319.855 139.247 M97.656 144.149 C 97.656 146.567,106.911 153.402,108.302 152.011 C 108.945 151.368,108.033 150.300,105.223 148.404 C 103.640 147.335,101.757 145.945,101.039 145.315 C 99.149 143.655,97.656 143.141,97.656 144.149 M68.025 157.382 C 66.091 158.597,76.825 177.070,91.111 197.113 C 96.446 204.597,97.211 205.002,100.083 201.862 C 102.485 199.236,102.512 199.477,99.324 195.150 C 98.360 193.843,97.076 191.807,96.471 190.625 C 95.865 189.443,94.145 187.009,92.648 185.215 C 91.151 183.422,89.438 181.049,88.842 179.942 C 83.747 170.478,70.327 155.936,68.025 157.382 M47.873 185.902 C 47.354 186.743,48.424 187.570,54.207 190.798 C 63.053 195.737,68.407 199.583,78.914 208.547 C 87.375 215.765,89.192 216.549,91.239 213.865 C 93.791 210.519,92.689 207.536,87.430 203.548 C 76.308 195.114,73.635 193.322,69.549 191.558 C 67.713 190.765,64.541 189.363,62.500 188.442 C 56.877 185.905,48.744 184.493,47.873 185.902 M130.374 186.685 C 127.337 187.467,126.852 187.809,127.904 188.425 C 128.320 188.668,129.774 189.885,131.135 191.130 C 133.467 193.262,133.693 193.377,135.066 193.127 C 139.690 192.288,141.280 190.805,140.242 188.299 C 139.244 185.891,135.703 185.312,130.374 186.685 M319.293 190.918 C 318.632 196.314,316.882 199.155,311.761 203.147 C 310.126 204.421,308.018 206.080,307.076 206.833 C 302.634 210.385,302.937 207.035,307.570 201.367 C 316.377 190.595,319.695 187.637,319.293 190.918 M296.757 192.443 C 297.095 193.324,296.242 196.350,295.272 197.713 C 293.602 200.059,291.940 198.378,293.125 195.541 C 294.450 192.371,296.167 190.906,296.757 192.443 M327.653 199.165 C 327.828 199.695,321.595 206.070,317.722 209.321 C 315.425 211.249,312.148 213.299,308.852 214.868 C 307.209 215.651,306.391 216.317,305.923 217.255 C 305.474 218.154,304.957 218.591,304.249 218.673 C 302.993 218.819,302.612 218.031,303.298 216.708 C 303.574 216.176,303.882 214.746,303.983 213.531 C 304.323 209.437,307.119 207.021,317.383 201.950 C 324.551 198.409,327.171 197.698,327.653 199.165 M199.707 207.702 C 199.044 207.940,199.089 208.851,199.776 209.115 C 200.572 209.420,201.331 208.425,200.688 207.917 C 200.417 207.702,199.976 207.606,199.707 207.702 M226.284 213.707 C 225.038 214.168,224.614 215.274,224.627 218.035 C 224.667 227.106,223.929 228.780,220.097 228.301 C 218.456 228.096,218.037 228.165,217.842 228.673 C 217.524 229.502,217.922 230.469,218.581 230.469 C 220.715 230.469,221.377 234.669,219.784 238.091 C 217.878 242.184,217.826 242.614,218.747 246.781 C 220.240 253.529,219.978 253.125,222.852 253.125 C 225.924 253.125,226.917 253.855,229.520 258.032 C 230.695 259.917,231.580 260.938,232.041 260.938 C 234.108 260.938,239.321 264.306,243.448 268.308 C 250.590 275.234,251.151 278.568,246.110 284.130 C 244.784 285.594,242.932 287.986,241.996 289.447 C 241.060 290.908,239.566 292.688,238.676 293.403 C 237.786 294.118,236.179 296.159,235.104 297.937 C 232.920 301.554,229.213 305.779,217.773 317.688 C 213.477 322.161,208.379 327.569,206.445 329.705 C 202.472 334.095,200.582 335.628,199.347 335.466 C 196.133 335.045,195.747 341.145,198.865 343.086 C 200.694 344.225,200.155 344.720,225.787 318.409 C 232.981 311.024,239.872 304.207,241.100 303.259 C 242.329 302.312,244.128 300.505,245.098 299.244 C 246.068 297.983,247.735 296.310,248.801 295.528 C 249.868 294.745,251.496 292.976,252.421 291.597 C 253.345 290.218,256.914 286.200,260.352 282.669 C 263.789 279.138,267.251 275.221,268.045 273.964 C 268.838 272.708,271.278 269.658,273.467 267.188 C 287.759 251.052,287.438 249.387,272.521 262.291 C 259.176 273.834,259.009 273.796,257.998 258.984 C 257.300 248.749,257.204 248.378,251.862 235.352 C 246.963 223.405,245.877 221.904,242.539 222.468 C 240.922 222.741,238.281 220.853,238.281 219.423 C 238.281 218.002,237.199 217.816,234.428 218.759 C 231.264 219.837,230.469 219.660,230.469 217.877 C 230.469 215.058,228.347 212.944,226.284 213.707 M215.431 217.575 C 215.102 218.610,215.480 219.141,216.546 219.141 C 217.792 219.141,218.415 218.413,217.937 217.518 C 217.412 216.538,215.748 216.576,215.431 217.575 M348.047 221.910 C 338.681 222.288,321.214 223.732,320.020 224.228 C 318.774 224.745,318.928 225.618,320.508 227.006 C 321.260 227.666,321.875 228.427,321.875 228.697 C 321.875 228.967,322.276 229.784,322.765 230.512 C 323.822 232.083,323.735 232.918,322.426 233.776 C 319.924 235.416,322.879 235.552,331.075 234.176 C 334.287 233.636,339.375 233.023,342.383 232.814 C 356.087 231.857,372.266 226.734,372.266 223.349 C 372.266 221.442,367.172 221.139,348.047 221.910 M56.858 228.090 C 56.089 229.334,58.732 230.658,64.840 232.087 C 66.668 232.515,69.281 233.205,70.647 233.620 C 73.299 234.427,76.172 234.621,76.172 233.993 C 76.172 233.055,73.150 231.904,61.727 228.491 C 58.991 227.673,57.206 227.526,56.858 228.090 M171.213 230.640 C 167.595 232.262,167.356 232.481,166.580 234.893 C 166.222 236.005,165.450 237.529,164.864 238.281 C 162.620 241.161,162.447 242.155,163.661 245.163 C 164.084 246.212,164.959 249.707,165.605 252.930 C 167.164 260.704,167.424 261.528,168.559 262.272 C 169.090 262.620,169.952 263.748,170.474 264.778 C 172.020 267.828,172.180 267.877,175.872 266.418 C 181.476 264.203,186.841 266.233,189.067 271.409 C 190.387 274.478,191.361 274.519,192.630 271.559 C 193.053 270.572,194.174 268.937,195.121 267.924 C 197.528 265.351,197.972 261.228,197.247 248.186 C 197.073 245.053,197.090 244.980,198.374 243.381 C 199.990 241.369,199.820 240.884,197.196 240.029 C 194.173 239.043,193.063 238.302,191.629 236.310 C 190.542 234.801,189.990 234.425,187.957 233.809 C 186.642 233.411,184.638 232.548,183.505 231.891 C 178.888 229.214,175.225 228.841,171.213 230.640 M341.285 238.374 C 340.715 238.791,340.604 239.335,340.701 241.222 C 340.874 244.602,342.022 245.134,349.023 245.074 C 360.315 244.977,369.289 240.906,363.297 238.599 C 361.633 237.958,342.127 237.759,341.285 238.374 M35.883 239.038 C 33.935 240.637,36.287 242.173,40.697 242.182 C 44.485 242.189,46.452 241.487,46.478 240.118 C 46.510 238.471,37.672 237.570,35.883 239.038 M330.000 254.990 C 329.419 255.622,328.421 256.356,327.782 256.621 C 325.507 257.563,326.115 259.602,329.127 261.133 C 331.271 262.222,344.244 262.310,346.582 261.250 C 350.058 259.675,348.371 257.998,341.072 255.771 C 334.146 253.659,331.399 253.465,330.000 254.990 M57.813 255.620 C 52.326 257.098,50.399 258.207,50.927 259.583 C 52.078 262.580,66.863 261.527,68.313 258.345 C 69.812 255.055,64.767 253.745,57.813 255.620 M76.563 269.670 C 71.435 271.496,67.578 273.970,67.578 275.434 C 67.578 278.344,75.614 276.531,81.934 272.195 C 85.678 269.626,81.804 267.804,76.563 269.670 M315.433 270.061 C 310.566 271.803,312.614 273.935,321.311 276.178 C 333.039 279.201,335.396 275.433,324.743 270.690 C 320.729 268.903,318.993 268.786,315.433 270.061 M299.513 281.867 C 299.389 281.991,297.854 282.083,296.102 282.072 C 291.919 282.045,291.872 282.858,295.898 285.614 C 302.795 290.333,310.156 292.440,310.156 289.693 C 310.156 286.499,301.354 280.026,299.513 281.867 M95.299 283.478 C 90.620 285.810,87.956 290.234,91.230 290.234 C 93.741 290.234,96.365 288.153,98.020 284.850 C 99.364 282.165,98.654 281.807,95.299 283.478 M278.118 287.314 C 276.460 289.311,283.666 296.650,286.569 295.922 C 289.833 295.103,283.882 286.719,280.035 286.719 C 279.237 286.719,278.395 286.980,278.118 287.314 " stroke="none" fill="#d0ab99" fill-rule="evenodd"></path><path id="path1" d="M0.000 200.000 L 0.000 400.000 200.000 400.000 L 400.000 400.000 400.000 200.000 L 400.000 0.000 200.000 0.000 L 0.000 0.000 0.000 200.000 M211.875 29.099 C 222.827 29.995,234.623 32.453,243.164 35.617 C 261.275 42.328,271.551 47.620,282.347 55.797 C 288.683 60.595,289.799 60.997,293.741 59.901 C 297.097 58.968,297.427 59.327,297.077 63.527 C 296.857 66.176,296.931 66.991,297.502 68.195 C 298.523 70.347,307.218 79.175,309.691 80.571 C 312.161 81.965,312.624 82.618,313.439 85.865 C 313.780 87.221,314.559 89.067,315.171 89.966 C 325.215 104.740,331.658 120.798,335.950 141.760 C 336.627 145.070,337.611 149.093,338.135 150.698 L 339.088 153.618 338.115 160.110 C 336.536 170.644,336.239 173.852,336.700 175.388 C 337.336 177.506,337.221 177.949,335.529 179.903 C 333.648 182.077,333.673 182.241,336.157 183.926 C 338.310 185.388,337.024 185.327,349.055 184.536 C 357.822 183.959,356.876 187.926,347.070 192.860 C 336.872 197.990,326.012 204.854,316.669 212.073 C 314.558 213.704,311.833 215.793,310.614 216.714 C 309.396 217.635,307.847 218.814,307.173 219.333 C 304.270 221.567,303.250 225.562,304.397 230.205 C 305.912 236.338,301.325 240.950,298.015 236.621 C 297.318 235.708,295.374 233.555,293.697 231.836 C 290.984 229.056,290.397 228.171,288.383 223.828 C 284.290 214.999,282.635 212.344,277.227 205.925 C 274.325 202.480,271.763 200.864,268.677 200.532 C 264.757 200.110,264.355 199.951,262.319 198.025 C 258.084 194.021,252.719 193.896,247.712 197.686 C 246.553 198.564,244.804 199.429,243.504 199.769 C 240.910 200.446,240.450 200.831,239.765 202.900 C 239.337 204.194,239.000 204.518,237.598 204.983 C 236.685 205.286,235.938 205.704,235.938 205.912 C 235.938 207.683,232.649 207.471,229.735 205.513 C 227.028 203.695,221.973 203.498,217.525 205.038 L 214.932 205.935 213.125 205.136 C 210.787 204.102,210.632 203.568,211.867 200.816 C 212.430 199.562,212.891 198.222,212.891 197.840 C 212.891 197.458,213.485 196.074,214.213 194.764 C 214.940 193.454,215.990 190.877,216.547 189.036 C 217.391 186.248,217.940 185.235,219.830 182.981 C 223.182 178.984,224.831 179.079,230.469 183.593 C 237.041 188.856,243.231 189.534,251.758 185.925 C 258.809 182.941,260.390 182.634,265.981 183.165 C 276.032 184.121,283.860 183.949,286.328 182.717 C 296.980 177.399,298.577 176.415,300.335 174.089 C 303.042 170.507,305.921 169.985,306.075 173.048 C 306.170 174.950,306.160 174.924,307.034 175.392 C 309.291 176.600,313.093 173.447,325.983 159.674 C 333.132 152.035,333.821 148.947,330.885 137.695 C 330.492 136.191,329.800 133.379,329.345 131.445 C 327.895 125.278,323.268 113.694,319.707 107.319 C 315.387 99.584,311.746 94.531,310.494 94.531 C 307.552 94.531,307.641 96.716,311.240 112.891 C 313.291 122.104,313.220 129.852,311.019 137.004 C 309.519 141.878,312.252 142.698,317.446 138.933 C 324.181 134.052,327.162 136.712,323.504 144.337 C 320.686 150.210,319.074 151.348,316.991 148.937 L 315.734 147.484 312.437 147.961 C 310.623 148.223,307.640 148.438,305.808 148.438 C 302.250 148.438,302.060 148.503,296.680 151.602 C 293.862 153.225,288.340 155.657,288.074 155.392 C 287.607 154.925,289.904 152.387,292.246 150.783 C 308.027 139.974,311.434 133.966,309.009 121.225 C 306.949 110.403,306.492 109.524,302.987 109.633 C 300.578 109.708,300.404 109.494,300.397 106.435 C 300.382 100.625,297.897 101.440,293.826 108.588 C 289.818 115.624,282.177 121.118,274.581 122.426 C 270.694 123.094,255.026 116.819,248.156 111.843 C 246.455 110.611,244.490 109.706,241.797 108.915 C 239.295 108.180,239.210 106.573,241.385 101.179 C 243.930 94.866,244.239 95.143,234.781 95.268 L 227.314 95.368 225.948 94.168 C 225.197 93.508,224.143 92.969,223.607 92.969 C 221.698 92.969,220.017 91.959,219.766 90.661 C 219.637 89.997,219.430 88.931,219.307 88.292 C 219.039 86.902,217.098 85.156,215.820 85.156 C 214.761 85.156,212.652 83.516,212.305 82.421 C 212.174 82.010,211.154 81.148,210.038 80.506 C 208.881 79.840,207.304 78.431,206.373 77.230 C 204.997 75.457,204.347 74.983,202.271 74.241 C 200.915 73.756,199.232 73.030,198.531 72.628 C 196.093 71.228,192.311 69.922,190.696 69.922 C 189.290 69.922,188.775 69.654,186.874 67.933 C 185.666 66.839,183.585 65.453,182.249 64.854 C 179.767 63.740,179.545 63.473,178.162 59.927 C 177.178 57.403,173.837 54.709,170.463 53.718 C 168.769 53.221,166.818 52.584,166.127 52.303 C 164.743 51.740,163.208 52.682,162.652 54.435 C 162.513 54.873,161.907 56.031,161.305 57.010 C 159.554 59.859,158.771 63.635,159.316 66.595 C 159.563 67.937,159.766 70.362,159.766 71.983 C 159.766 73.833,160.055 75.852,160.542 77.407 C 161.528 80.551,161.521 81.459,160.491 84.150 C 159.496 86.750,159.778 87.288,162.988 88.916 C 164.891 89.881,165.373 90.854,164.160 91.281 C 163.784 91.414,163.083 91.877,162.601 92.311 C 162.081 92.778,160.842 93.218,159.552 93.394 C 154.909 94.024,154.321 95.556,156.412 101.575 C 158.424 107.365,158.240 108.550,155.078 110.168 C 154.541 110.443,152.352 111.811,150.214 113.208 C 143.722 117.451,134.680 121.239,128.635 122.250 L 125.825 122.719 121.213 121.110 C 114.331 118.708,110.156 115.344,105.509 108.458 C 101.718 102.840,100.000 102.753,100.000 108.177 C 100.000 110.258,99.252 111.066,97.229 111.169 C 94.131 111.327,93.005 113.673,91.320 123.478 C 89.806 132.285,94.624 141.133,104.690 148.027 C 108.071 150.343,108.594 150.923,108.594 152.362 C 108.594 154.466,105.803 154.248,101.808 151.833 C 97.668 149.331,93.882 148.074,88.929 147.556 L 84.664 147.110 83.740 148.185 C 83.231 148.776,82.704 149.957,82.567 150.810 C 82.431 151.663,82.178 152.448,82.005 152.555 C 80.809 153.294,75.391 142.016,75.391 138.787 C 75.391 135.432,80.057 134.410,83.681 136.970 C 86.448 138.925,86.474 138.932,86.186 137.656 C 84.905 131.966,85.708 119.428,88.039 108.753 C 89.878 100.329,90.128 98.131,89.282 97.807 C 86.082 96.579,75.486 118.103,70.896 135.156 C 67.031 149.518,67.211 151.605,72.848 157.827 C 74.495 159.645,76.793 162.485,77.954 164.138 C 79.115 165.791,80.692 167.637,81.457 168.240 C 82.223 168.843,83.637 170.524,84.600 171.977 C 86.129 174.284,91.564 179.312,92.506 179.291 C 93.442 179.270,93.748 178.423,93.832 175.620 C 93.937 172.087,93.188 171.007,90.293 170.518 C 88.040 170.137,87.285 169.491,87.852 168.431 C 88.633 166.973,90.085 166.935,92.776 168.302 C 94.107 168.978,95.533 169.531,95.944 169.531 C 97.387 169.531,99.380 170.985,100.757 173.045 C 102.140 175.112,102.477 175.361,110.742 180.450 C 115.042 183.098,116.651 183.316,128.241 182.823 L 138.568 182.384 142.624 183.579 C 144.855 184.236,147.559 185.150,148.633 185.609 C 150.457 186.388,152.274 186.686,159.203 187.341 C 162.811 187.683,164.129 187.090,169.727 182.607 C 175.663 177.853,176.348 176.578,177.003 169.056 C 177.485 163.515,176.921 161.087,173.619 154.492 C 170.987 149.236,170.160 146.594,168.776 139.019 C 167.109 129.890,168.069 128.649,173.280 133.198 C 175.971 135.547,177.120 137.265,177.985 140.234 C 179.109 144.089,182.782 146.806,187.369 147.174 C 190.598 147.433,190.970 147.905,189.678 150.110 C 188.468 152.174,188.415 153.617,189.453 156.250 C 189.883 157.340,190.234 158.759,190.234 159.402 C 190.234 160.876,191.024 162.780,192.562 165.016 C 195.304 169.001,194.530 170.107,189.895 168.826 C 183.524 167.065,182.031 167.419,182.031 170.692 C 182.031 171.095,181.569 171.974,181.004 172.645 C 180.115 173.702,180.009 174.101,180.217 175.619 C 180.350 176.584,180.252 178.143,180.001 179.083 C 179.616 180.522,179.655 181.161,180.252 183.131 C 181.211 186.299,180.863 188.377,178.887 191.286 C 176.923 194.176,176.945 194.473,179.297 197.070 C 183.124 201.296,180.387 203.162,173.525 201.005 C 170.432 200.033,165.205 199.219,162.054 199.219 C 159.589 199.219,155.103 197.996,151.172 196.252 C 145.507 193.740,140.566 194.237,136.920 197.685 C 134.843 199.650,134.562 199.743,131.186 199.593 C 125.536 199.341,114.940 211.290,111.183 222.149 C 109.308 227.571,108.936 228.220,105.510 232.031 C 103.868 233.857,102.036 236.011,101.438 236.816 C 98.290 241.058,93.169 235.599,95.117 230.078 C 96.747 225.460,95.618 223.490,87.289 216.405 C 75.155 206.085,63.031 198.744,61.179 200.595 C 60.524 201.251,59.682 200.329,60.037 199.344 C 60.286 198.652,56.886 196.144,52.722 193.947 C 41.760 188.162,41.546 183.614,52.263 184.172 C 59.498 184.549,61.041 184.483,62.949 183.720 C 64.117 183.253,65.143 183.170,67.230 183.376 C 70.142 183.663,71.094 183.332,71.094 182.031 C 71.094 180.981,69.114 180.345,66.823 180.661 C 63.050 181.179,61.083 178.993,62.248 175.576 C 62.710 174.218,62.774 173.301,62.511 171.758 C 62.180 169.811,61.679 165.542,60.900 158.032 C 60.513 154.297,60.333 155.625,63.484 138.924 C 66.050 125.322,72.880 107.786,79.861 96.875 C 83.427 91.301,85.539 87.221,86.090 84.841 C 86.772 81.892,86.976 81.620,89.624 80.126 C 92.560 78.469,99.957 70.666,101.592 67.502 C 102.213 66.301,102.296 65.572,102.092 63.152 C 101.780 59.462,102.688 58.496,105.709 59.304 C 109.209 60.241,110.187 59.997,114.344 57.150 C 121.047 52.561,123.519 50.991,128.589 48.104 C 134.677 44.637,145.983 39.125,150.195 37.569 C 151.914 36.935,155.057 35.692,157.179 34.807 C 167.969 30.311,193.777 27.617,211.875 29.099 M186.910 35.113 C 170.939 37.170,169.784 38.888,179.858 45.604 C 184.596 48.763,186.093 49.111,191.491 48.305 C 197.715 47.376,200.446 47.472,206.313 48.828 C 214.629 50.750,215.229 50.609,222.020 45.148 C 227.116 41.049,228.008 39.453,225.952 38.106 C 221.806 35.389,198.587 33.609,186.910 35.113 M148.105 45.325 C 139.039 48.776,124.122 57.469,118.686 62.469 C 115.670 65.243,115.532 66.261,117.806 68.957 C 118.647 69.955,120.070 71.832,120.967 73.130 C 126.445 81.053,130.660 81.017,139.908 72.969 C 141.340 71.723,142.629 70.703,142.773 70.703 C 143.276 70.703,147.516 67.178,148.317 66.094 C 150.461 63.195,155.158 50.968,155.701 46.873 C 156.183 43.238,154.494 42.893,148.105 45.325 M243.066 44.181 C 242.300 44.976,242.484 46.592,244.149 53.711 C 245.263 58.472,245.821 61.955,246.120 66.016 C 246.819 75.515,246.991 75.874,251.538 77.309 C 253.508 77.931,254.527 78.498,255.166 79.328 C 255.655 79.962,256.438 80.973,256.906 81.573 C 257.563 82.415,258.294 82.764,260.109 83.102 C 261.403 83.342,263.126 83.991,263.938 84.543 C 265.866 85.853,266.032 85.830,268.206 83.948 C 269.221 83.069,271.001 81.901,272.159 81.352 C 274.506 80.241,275.457 79.135,277.326 75.340 C 278.028 73.915,279.637 71.378,280.903 69.702 C 284.745 64.611,284.563 64.232,275.282 58.051 C 261.427 48.823,245.288 41.874,243.066 44.181 M164.610 45.903 C 163.275 47.940,164.510 50.391,166.870 50.391 C 170.583 50.391,171.021 48.264,167.818 45.792 C 166.351 44.659,165.403 44.692,164.610 45.903 M230.307 46.907 C 228.974 48.491,229.120 49.377,230.741 49.535 C 231.711 49.629,232.123 49.441,232.623 48.678 C 234.220 46.241,232.180 44.681,230.307 46.907 M228.659 53.805 L 225.873 53.939 223.538 56.431 C 219.934 60.279,219.892 63.580,223.366 70.023 C 224.865 72.802,225.737 75.079,226.583 78.422 C 228.561 86.242,229.841 87.805,234.576 88.185 C 239.664 88.593,240.814 87.263,238.840 83.255 L 237.470 80.474 238.698 77.674 C 239.586 75.651,240.024 73.890,240.278 71.324 C 240.470 69.371,240.732 66.895,240.858 65.820 C 241.398 61.228,235.475 53.077,231.972 53.593 C 231.682 53.636,230.191 53.731,228.659 53.805 M293.556 76.168 C 291.250 80.629,294.348 93.892,297.336 92.346 C 303.011 89.412,304.586 84.853,301.417 80.536 C 297.760 75.555,294.741 73.877,293.556 76.168 M102.512 78.901 C 100.087 80.466,97.690 83.939,97.670 85.917 C 97.646 88.285,100.537 91.493,102.142 90.877 C 103.061 90.524,104.153 87.786,104.909 83.939 C 105.897 78.909,105.099 77.231,102.512 78.901 M111.568 81.116 C 108.629 83.841,105.734 99.440,107.414 103.497 C 108.077 105.097,112.091 108.764,114.538 110.004 C 115.623 110.554,117.336 111.776,118.346 112.721 C 122.852 116.936,131.052 118.161,133.969 115.055 C 135.183 113.763,134.766 113.293,130.490 111.136 C 125.442 108.590,124.158 106.866,123.653 101.953 C 122.333 89.099,118.392 79.607,116.814 85.478 C 116.195 87.785,115.478 87.122,114.648 83.477 C 114.091 81.027,113.613 80.106,112.887 80.084 C 112.777 80.081,112.184 80.545,111.568 81.116 M287.163 82.368 C 286.763 82.768,286.118 83.634,285.728 84.293 C 284.795 85.874,283.856 86.072,282.771 84.917 C 279.693 81.640,276.351 89.048,275.175 101.758 C 274.710 106.787,273.095 108.976,267.992 111.489 C 264.068 113.422,263.623 114.393,266.016 115.798 C 269.171 117.652,275.213 116.485,280.664 112.969 C 282.168 111.999,284.380 110.700,285.580 110.083 C 294.136 105.682,295.540 99.675,291.317 85.547 C 290.181 81.745,288.824 80.707,287.163 82.368 M250.256 93.683 C 248.720 95.380,250.191 97.332,254.110 98.798 C 259.117 100.671,262.009 98.824,258.855 95.767 C 256.397 93.384,251.582 92.217,250.256 93.683 M143.604 94.324 C 140.337 95.488,138.238 98.041,139.681 99.095 C 141.670 100.550,149.528 98.588,150.200 96.470 C 150.953 94.096,147.446 92.954,143.604 94.324 M214.510 124.234 C 216.287 124.712,216.426 125.439,214.941 126.485 C 210.224 129.808,206.561 129.777,207.191 126.418 C 207.725 123.573,209.778 122.960,214.510 124.234 M189.353 124.689 C 190.075 125.288,189.950 126.478,189.118 126.923 C 187.613 127.729,184.394 126.142,184.893 124.840 C 185.280 123.832,188.201 123.732,189.353 124.689 M230.783 132.919 C 231.125 138.251,228.370 148.612,224.996 154.688 C 223.185 157.947,222.506 159.683,221.685 163.146 C 220.458 168.324,219.808 169.211,217.852 168.368 C 216.134 167.628,214.371 167.727,210.935 168.754 C 204.701 170.619,203.939 170.118,205.521 165.199 C 206.229 162.998,206.641 160.879,206.641 159.433 C 206.641 157.745,206.896 156.667,207.617 155.311 C 208.981 152.746,208.888 151.747,207.145 150.260 C 203.465 147.119,203.391 147.007,203.643 144.882 C 203.842 143.202,203.759 142.841,203.040 142.267 C 200.060 139.886,199.995 139.612,201.569 136.035 C 202.805 133.227,205.216 135.163,205.904 139.515 C 206.933 146.027,217.029 147.070,220.263 140.998 C 222.268 137.234,223.930 135.089,226.457 133.005 C 229.755 130.285,230.614 130.268,230.783 132.919 M265.116 136.247 C 265.957 136.781,265.034 137.489,263.162 137.745 C 261.129 138.024,260.752 137.557,262.196 136.546 C 263.129 135.893,264.361 135.766,265.116 136.247 M255.771 138.162 C 259.274 139.405,261.137 141.749,259.082 142.327 C 255.921 143.217,254.382 142.778,251.504 140.163 C 247.602 136.616,249.246 135.845,255.771 138.162 M196.801 138.796 C 196.621 140.060,194.775 139.993,194.595 138.716 C 194.522 138.203,194.689 137.644,194.964 137.474 C 195.759 136.982,196.938 137.831,196.801 138.796 M312.277 167.020 C 313.206 167.949,313.061 169.706,312.012 170.222 C 308.219 172.087,306.575 170.677,309.329 167.923 C 311.012 166.239,311.383 166.126,312.277 167.020 M78.134 186.230 C 78.144 187.839,80.097 195.445,80.880 196.923 C 81.975 198.991,83.438 200.475,87.231 203.367 C 89.420 205.036,92.242 207.255,93.501 208.299 C 99.267 213.076,97.820 208.063,91.067 199.866 C 89.269 197.684,86.254 193.877,84.367 191.406 C 78.892 184.240,78.118 183.597,78.134 186.230 M315.977 191.719 C 311.249 196.797,306.448 202.562,304.940 204.973 C 302.894 208.243,304.052 209.251,307.076 206.833 C 308.018 206.080,310.126 204.421,311.761 203.147 C 316.882 199.155,318.632 196.314,319.293 190.918 C 319.559 188.744,318.513 188.997,315.977 191.719 M102.607 190.102 C 102.019 190.689,102.367 195.911,103.100 197.527 C 104.842 201.364,108.536 200.620,107.465 196.648 C 106.648 193.615,103.430 189.279,102.607 190.102 M294.547 192.946 C 292.521 195.791,292.100 198.828,293.731 198.828 C 294.699 198.828,295.943 197.061,296.536 194.843 C 297.332 191.865,296.133 190.720,294.547 192.946 M200.758 208.818 C 200.260 209.418,199.219 209.128,199.219 208.389 C 199.219 207.706,200.074 207.431,200.688 207.917 C 201.047 208.201,201.066 208.446,200.758 208.818 M229.749 215.247 C 230.145 215.985,230.469 217.169,230.469 217.877 C 230.469 219.660,231.264 219.837,234.428 218.759 C 237.199 217.816,238.281 218.002,238.281 219.423 C 238.281 220.853,240.922 222.741,242.539 222.468 C 245.877 221.904,246.963 223.405,251.862 235.352 C 257.204 248.378,257.300 248.749,257.998 258.984 C 259.009 273.796,259.176 273.834,272.521 262.291 C 287.438 249.387,287.759 251.052,273.467 267.188 C 271.278 269.658,268.838 272.708,268.045 273.964 C 267.251 275.221,263.789 279.138,260.352 282.669 C 256.914 286.200,253.345 290.218,252.421 291.597 C 251.496 292.976,249.868 294.745,248.801 295.528 C 247.735 296.310,246.077 297.972,245.117 299.219 C 244.157 300.466,242.622 302.063,241.705 302.767 C 239.182 304.704,234.612 309.257,217.899 326.483 C 209.499 335.140,202.102 342.494,201.461 342.826 C 198.454 344.381,196.856 343.228,183.984 330.222 C 166.251 312.304,157.901 304.214,155.423 302.552 C 154.646 302.031,153.371 300.715,152.589 299.627 C 151.808 298.539,150.057 296.850,148.698 295.872 C 147.042 294.681,145.964 293.555,145.428 292.458 C 144.989 291.557,143.441 289.502,141.988 287.891 C 140.536 286.279,138.431 283.818,137.312 282.422 C 136.193 281.025,134.960 279.619,134.571 279.297 C 134.182 278.975,132.955 277.305,131.844 275.586 C 130.733 273.867,128.153 270.439,126.111 267.969 C 120.313 260.956,116.842 256.075,117.315 255.602 C 117.809 255.107,123.324 259.117,133.398 267.296 C 140.082 272.722,140.470 272.322,141.602 258.848 C 142.319 250.315,142.540 249.541,146.204 242.773 C 149.480 236.723,150.210 235.786,153.080 233.942 C 154.286 233.167,155.713 232.053,156.250 231.467 C 156.787 230.880,157.794 230.163,158.488 229.872 C 159.182 229.581,160.606 228.542,161.653 227.562 C 163.827 225.529,164.066 225.472,165.618 226.619 C 166.583 227.333,167.102 227.425,169.132 227.241 C 171.232 227.050,171.777 227.159,173.745 228.164 C 174.972 228.790,177.207 229.617,178.711 230.001 C 180.215 230.384,182.372 231.235,183.505 231.892 C 184.638 232.548,186.642 233.411,187.957 233.809 C 189.990 234.425,190.542 234.801,191.629 236.310 C 193.063 238.302,194.173 239.043,197.196 240.029 C 199.820 240.884,199.990 241.369,198.374 243.381 C 197.090 244.980,197.073 245.053,197.247 248.186 C 197.972 261.228,197.528 265.351,195.121 267.924 C 194.174 268.937,193.053 270.572,192.630 271.559 C 191.361 274.519,190.387 274.478,189.067 271.409 C 186.841 266.233,181.476 264.203,175.872 266.418 C 172.185 267.875,172.018 267.825,170.488 264.805 C 169.138 262.140,167.202 260.979,163.154 260.407 C 161.400 260.159,159.456 261.697,156.311 265.820 C 154.254 268.517,153.712 268.976,151.007 270.313 C 146.533 272.524,147.578 279.116,153.195 284.119 C 154.711 285.469,156.391 287.524,157.618 289.528 C 158.812 291.477,160.135 293.107,160.951 293.632 C 163.766 295.443,164.107 295.819,165.426 298.557 C 166.170 300.103,167.861 302.598,169.185 304.102 C 179.868 316.242,197.914 335.108,199.137 335.415 C 200.441 335.742,202.325 334.273,206.445 329.713 C 208.379 327.572,213.477 322.161,217.773 317.688 C 229.213 305.779,232.920 301.554,235.104 297.937 C 236.179 296.159,237.786 294.118,238.676 293.403 C 239.566 292.688,241.060 290.908,241.996 289.447 C 242.932 287.986,244.784 285.594,246.110 284.130 C 251.150 278.568,250.590 275.237,243.448 268.304 C 240.058 265.013,238.611 263.910,235.871 262.531 L 232.485 260.826 229.011 261.024 C 227.101 261.133,225.127 261.442,224.625 261.711 C 224.122 261.980,222.636 262.333,221.321 262.496 C 219.658 262.702,218.341 263.171,216.986 264.039 C 215.191 265.189,214.856 265.269,212.695 265.060 C 210.971 264.894,209.734 265.030,208.015 265.574 C 203.640 266.959,203.118 266.104,203.469 258.128 L 203.721 252.388 205.633 248.753 C 206.684 246.753,207.854 243.887,208.232 242.383 C 210.046 235.177,210.478 234.282,212.377 233.806 C 215.593 232.999,217.569 231.428,217.781 229.509 C 217.829 229.070,217.891 228.559,217.919 228.373 C 217.946 228.187,218.901 228.151,220.041 228.294 C 223.936 228.781,224.667 227.144,224.627 218.035 C 224.606 213.390,227.816 211.643,229.749 215.247 M303.601 216.113 C 303.188 216.615,302.997 217.402,303.079 218.262 C 303.163 219.149,305.025 218.804,305.698 217.776 C 306.789 216.112,304.859 214.582,303.601 216.113 M217.937 217.518 C 218.415 218.413,217.792 219.141,216.546 219.141 C 215.480 219.141,215.102 218.610,215.431 217.575 C 215.748 216.576,217.412 216.538,217.937 217.518 M58.203 221.510 C 70.539 221.996,79.154 222.728,80.395 223.395 C 82.007 224.263,81.373 225.473,78.835 226.371 C 74.181 228.019,73.511 229.816,76.360 233.008 C 79.355 236.362,79.073 236.410,66.992 234.596 C 61.413 233.758,59.570 234.221,59.570 236.460 C 59.570 237.444,59.391 237.721,58.691 237.820 C 57.978 237.922,57.813 237.758,57.813 236.951 C 57.813 235.673,56.753 235.124,51.741 233.808 C 40.821 230.939,28.898 226.643,27.059 224.916 C 22.932 221.038,29.097 220.364,58.203 221.510 M370.911 222.050 C 377.356 224.743,359.047 231.651,342.383 232.814 C 339.375 233.023,334.287 233.636,331.075 234.176 C 321.963 235.706,321.072 235.589,322.262 233.015 C 323.152 231.091,322.535 229.043,320.463 227.046 C 317.650 224.333,318.286 224.084,330.664 223.040 C 348.288 221.555,368.534 221.057,370.911 222.050 M47.070 238.281 C 56.201 238.941,56.114 238.920,57.435 240.840 C 59.033 243.162,58.944 243.865,56.939 244.765 C 52.519 246.750,36.399 244.068,34.801 241.081 C 33.358 238.386,37.008 237.553,47.070 238.281 M363.297 238.599 C 369.289 240.906,360.315 244.977,349.023 245.074 C 342.022 245.134,340.874 244.602,340.701 241.222 C 340.521 237.729,340.166 237.828,352.147 238.038 C 357.734 238.136,362.751 238.389,363.297 238.599 M68.621 252.647 C 68.873 252.807,69.196 253.405,69.340 253.977 C 69.483 254.549,70.295 255.660,71.145 256.446 C 72.787 257.965,72.843 258.515,71.555 260.485 C 69.990 262.878,55.782 263.315,51.501 261.101 C 47.906 259.242,52.681 256.601,66.602 252.748 C 68.173 252.313,68.103 252.317,68.621 252.647 M341.072 255.771 C 348.371 257.998,350.058 259.675,346.582 261.250 C 344.244 262.310,331.271 262.222,329.127 261.133 C 326.115 259.602,325.507 257.563,327.782 256.621 C 328.421 256.356,329.419 255.622,330.000 254.990 C 331.399 253.465,334.146 253.659,341.072 255.771 M82.168 269.360 C 87.101 271.803,85.242 274.868,77.734 276.673 C 64.521 279.848,63.571 274.250,76.546 269.669 C 79.577 268.599,80.525 268.546,82.168 269.360 M324.743 270.690 C 335.396 275.433,333.039 279.201,321.311 276.178 C 312.614 273.935,310.566 271.803,315.433 270.061 C 318.993 268.786,320.729 268.903,324.743 270.690 M103.913 282.031 C 108.027 282.031,105.759 285.425,99.724 288.304 C 89.154 293.343,84.968 292.599,90.517 286.666 C 94.689 282.205,97.735 280.690,100.887 281.508 C 101.997 281.796,103.359 282.031,103.913 282.031 M302.611 282.058 C 307.066 283.751,311.686 289.779,309.447 290.977 C 307.259 292.148,293.395 285.320,293.041 282.897 C 292.922 282.087,293.053 282.052,296.102 282.072 C 297.854 282.083,299.389 281.991,299.513 281.867 C 299.872 281.508,301.413 281.603,302.611 282.058 M120.971 285.527 C 123.596 287.128,123.168 289.369,119.545 292.992 C 113.331 299.206,109.087 297.314,113.284 290.201 C 116.105 285.421,118.454 283.993,120.971 285.527 M282.875 287.681 C 284.698 288.919,287.500 293.092,287.500 294.568 C 287.500 298.109,280.450 294.177,278.318 289.447 C 277.084 286.711,279.863 285.634,282.875 287.681 M129.297 292.127 C 129.297 293.695,128.004 294.742,126.270 294.578 C 125.382 294.493,125.741 292.666,126.810 291.825 C 128.319 290.639,129.297 290.758,129.297 292.127 " stroke="none" fill="#080d13" fill-rule="evenodd"></path><path id="path2" d="M191.211 28.791 C 180.221 29.388,162.787 32.470,157.179 34.807 C 155.057 35.692,151.914 36.935,150.195 37.569 C 145.983 39.125,134.677 44.637,128.589 48.104 C 123.519 50.991,121.047 52.561,114.344 57.150 C 110.187 59.997,109.209 60.241,105.709 59.304 C 102.688 58.496,101.780 59.462,102.092 63.152 C 102.296 65.572,102.213 66.301,101.592 67.502 C 99.957 70.666,92.560 78.469,89.624 80.126 C 86.976 81.620,86.772 81.892,86.090 84.841 C 85.539 87.221,83.427 91.301,79.861 96.875 C 72.880 107.786,66.050 125.322,63.484 138.924 C 60.333 155.625,60.513 154.297,60.900 158.032 C 61.679 165.542,62.180 169.811,62.511 171.758 C 62.774 173.301,62.710 174.218,62.248 175.576 C 61.083 178.993,63.050 181.179,66.823 180.661 C 69.114 180.345,71.094 180.981,71.094 182.031 C 71.094 183.332,70.142 183.663,67.230 183.376 C 65.143 183.170,64.117 183.253,62.949 183.720 C 61.041 184.483,59.498 184.549,52.263 184.172 C 41.546 183.614,41.760 188.162,52.722 193.947 C 56.886 196.144,60.286 198.652,60.037 199.344 C 59.682 200.329,60.524 201.251,61.179 200.595 C 63.031 198.744,75.155 206.085,87.289 216.405 C 95.618 223.490,96.747 225.460,95.117 230.078 C 93.169 235.599,98.290 241.058,101.438 236.816 C 102.036 236.011,103.868 233.857,105.510 232.031 C 108.936 228.220,109.308 227.571,111.183 222.149 C 114.940 211.290,125.536 199.341,131.186 199.593 C 134.562 199.743,134.843 199.650,136.920 197.685 C 140.566 194.237,145.507 193.740,151.172 196.252 C 155.103 197.996,159.589 199.219,162.054 199.219 C 165.205 199.219,170.432 200.033,173.525 201.005 C 180.387 203.162,183.124 201.296,179.297 197.070 C 176.945 194.473,176.923 194.176,178.887 191.286 C 180.863 188.377,181.211 186.299,180.252 183.131 C 179.655 181.161,179.616 180.522,180.001 179.083 C 180.252 178.143,180.350 176.584,180.217 175.619 C 180.009 174.101,180.115 173.702,181.004 172.645 C 181.569 171.974,182.031 171.095,182.031 170.692 C 182.031 167.419,183.524 167.065,189.895 168.826 C 194.530 170.107,195.304 169.001,192.562 165.016 C 191.024 162.780,190.234 160.876,190.234 159.402 C 190.234 158.759,189.883 157.340,189.453 156.250 C 188.415 153.617,188.468 152.174,189.678 150.110 C 190.970 147.905,190.598 147.433,187.369 147.174 C 182.782 146.806,179.109 144.089,177.985 140.234 C 177.120 137.265,175.971 135.547,173.280 133.198 C 168.069 128.649,167.109 129.890,168.776 139.019 C 170.160 146.594,170.987 149.236,173.619 154.492 C 176.921 161.087,177.485 163.515,177.003 169.056 C 176.348 176.578,175.663 177.853,169.727 182.607 C 164.129 187.090,162.811 187.683,159.203 187.341 C 152.274 186.686,150.457 186.388,148.633 185.609 C 147.559 185.150,144.855 184.236,142.624 183.579 L 138.568 182.384 128.241 182.823 C 116.651 183.316,115.042 183.098,110.742 180.450 C 102.477 175.361,102.140 175.112,100.757 173.045 C 99.380 170.985,97.387 169.531,95.944 169.531 C 95.533 169.531,94.107 168.978,92.776 168.302 C 90.085 166.935,88.633 166.973,87.852 168.431 C 87.285 169.491,88.040 170.137,90.293 170.518 C 93.188 171.007,93.937 172.087,93.832 175.620 C 93.748 178.423,93.442 179.270,92.506 179.291 C 91.564 179.312,86.129 174.284,84.600 171.977 C 83.637 170.524,82.223 168.843,81.457 168.240 C 80.692 167.637,79.115 165.791,77.954 164.138 C 76.793 162.485,74.495 159.645,72.848 157.827 C 67.211 151.605,67.031 149.518,70.896 135.156 C 75.486 118.103,86.082 96.579,89.282 97.807 C 90.128 98.131,89.878 100.329,88.039 108.753 C 85.708 119.428,84.905 131.966,86.186 137.656 C 86.474 138.932,86.448 138.925,83.681 136.970 C 80.057 134.410,75.391 135.432,75.391 138.787 C 75.391 142.016,80.809 153.294,82.005 152.555 C 82.178 152.448,82.431 151.663,82.567 150.810 C 82.704 149.957,83.231 148.776,83.740 148.185 L 84.664 147.110 88.929 147.556 C 93.882 148.074,97.668 149.331,101.808 151.833 C 104.943 153.728,106.553 154.190,107.765 153.541 C 108.970 152.896,108.778 152.162,107.379 152.063 C 106.712 152.016,105.352 151.501,104.359 150.919 C 100.169 148.464,95.485 142.553,98.696 143.774 C 99.484 144.073,99.046 143.443,96.896 141.179 C 91.045 135.020,89.935 128.827,92.607 117.241 C 93.661 112.665,94.702 111.298,97.229 111.169 C 99.252 111.066,100.000 110.258,100.000 108.177 C 100.000 102.753,101.718 102.840,105.509 108.458 C 110.156 115.344,114.331 118.708,121.213 121.110 L 125.825 122.719 128.635 122.250 C 134.680 121.239,143.722 117.451,150.214 113.208 C 152.352 111.811,154.541 110.443,155.078 110.168 C 158.240 108.550,158.424 107.365,156.412 101.575 C 154.321 95.556,154.909 94.024,159.552 93.394 C 160.842 93.218,162.081 92.778,162.601 92.311 C 163.083 91.877,163.784 91.414,164.160 91.281 C 165.373 90.854,164.891 89.881,162.988 88.916 C 159.778 87.288,159.496 86.750,160.491 84.150 C 161.521 81.459,161.528 80.551,160.542 77.407 C 160.055 75.852,159.766 73.833,159.766 71.983 C 159.766 70.362,159.563 67.937,159.316 66.595 C 158.771 63.635,159.554 59.859,161.305 57.010 C 161.907 56.031,162.513 54.873,162.652 54.435 C 163.208 52.682,164.743 51.740,166.127 52.303 C 166.818 52.584,168.769 53.221,170.463 53.718 C 173.837 54.709,177.178 57.403,178.162 59.927 C 179.545 63.473,179.767 63.740,182.249 64.854 C 183.585 65.453,185.666 66.839,186.874 67.933 C 188.775 69.654,189.290 69.922,190.696 69.922 C 192.366 69.922,196.186 71.264,198.645 72.715 C 200.277 73.678,200.134 73.793,200.654 71.115 C 200.996 69.359,200.941 68.472,200.343 66.037 C 199.945 64.414,199.617 62.435,199.614 61.639 C 199.603 58.104,198.432 57.429,192.383 57.465 C 187.414 57.495,186.892 57.754,186.496 60.397 C 186.227 62.191,186.164 62.234,184.013 62.113 C 181.734 61.985,180.878 61.428,177.198 57.682 C 175.237 55.687,173.062 53.824,172.363 53.542 C 170.789 52.908,170.663 51.526,172.001 49.569 C 173.215 47.793,173.539 47.883,177.678 51.148 C 184.576 56.590,185.973 56.635,196.875 51.773 C 200.575 50.122,202.247 49.862,205.664 50.403 C 215.061 51.892,215.581 51.692,227.974 41.797 C 237.125 34.491,239.827 34.608,241.451 42.383 C 242.308 46.489,242.578 47.264,242.578 45.621 C 242.578 40.836,258.550 46.907,275.282 58.051 C 284.571 64.238,284.748 64.607,280.883 69.728 C 279.606 71.419,277.909 74.132,277.110 75.757 C 276.311 77.382,275.057 79.282,274.324 79.980 C 272.825 81.408,272.885 81.491,274.827 80.680 C 277.390 79.609,278.005 80.877,277.624 86.444 L 277.408 89.588 278.313 87.362 C 279.795 83.715,281.014 83.047,282.771 84.917 C 283.933 86.154,284.754 85.868,286.085 83.764 C 287.229 81.955,288.675 81.224,289.596 81.988 C 290.030 82.348,290.112 81.260,290.079 75.605 L 290.039 68.788 288.551 67.264 C 287.048 65.725,285.263 61.323,285.793 60.464 C 285.940 60.226,286.771 60.160,287.844 60.302 L 289.648 60.539 287.695 59.458 C 286.621 58.863,284.128 57.151,282.156 55.653 C 274.492 49.833,263.499 43.619,254.297 39.904 C 239.954 34.114,237.143 33.268,223.008 30.486 C 215.339 28.976,201.436 28.235,191.211 28.791 M212.695 35.344 C 228.375 36.866,230.084 38.662,222.020 45.148 C 215.229 50.609,214.629 50.750,206.313 48.828 C 200.446 47.472,197.715 47.376,191.491 48.305 C 187.367 48.921,186.951 48.921,185.008 48.308 C 181.227 47.117,173.047 40.972,173.047 39.324 C 173.047 35.556,193.611 33.492,212.695 35.344 M155.471 44.339 C 156.814 45.957,151.695 61.526,148.317 66.094 C 147.516 67.178,143.276 70.703,142.773 70.703 C 142.629 70.703,141.340 71.723,139.908 72.969 C 130.660 81.017,126.445 81.053,120.967 73.130 C 120.070 71.832,118.647 69.955,117.806 68.957 C 116.735 67.687,116.276 66.775,116.276 65.914 C 116.276 60.557,152.419 40.661,155.471 44.339 M167.818 45.792 C 171.021 48.264,170.583 50.391,166.870 50.391 C 164.510 50.391,163.275 47.940,164.610 45.903 C 165.403 44.692,166.351 44.659,167.818 45.792 M229.297 46.719 C 222.053 50.744,216.845 57.647,219.244 60.046 C 220.293 61.095,221.094 60.976,221.094 59.771 C 221.094 59.369,222.176 57.885,223.498 56.473 L 225.903 53.906 228.137 53.906 C 229.366 53.906,230.892 53.802,231.528 53.675 L 232.686 53.443 232.307 51.526 C 231.957 49.759,231.839 49.609,230.795 49.609 C 229.286 49.609,228.984 48.662,230.037 47.237 C 230.956 45.994,230.799 45.884,229.297 46.719 M115.207 70.494 C 118.027 71.952,119.047 74.355,119.292 80.118 C 119.411 82.923,119.781 84.880,120.837 88.290 C 122.249 92.852,123.184 97.386,123.653 101.953 C 124.158 106.866,125.442 108.590,130.490 111.136 C 134.766 113.293,135.183 113.763,133.969 115.055 C 131.052 118.161,122.852 116.936,118.346 112.721 C 117.336 111.776,115.623 110.554,114.538 110.004 C 112.091 108.764,108.077 105.097,107.414 103.497 C 105.763 99.511,108.660 83.666,111.490 81.206 C 112.482 80.344,112.500 80.234,112.500 75.125 C 112.500 69.344,112.612 69.152,115.207 70.494 M293.024 75.604 C 291.911 77.020,291.672 78.570,292.186 81.047 C 292.763 83.829,292.818 83.771,292.822 80.371 C 292.825 77.140,293.619 75.154,295.015 74.886 C 295.798 74.735,295.779 74.710,294.853 74.663 C 294.155 74.627,293.546 74.941,293.024 75.604 M298.242 76.953 C 299.081 77.813,299.856 78.516,299.963 78.516 C 300.071 78.516,299.472 77.813,298.633 76.953 C 297.794 76.094,297.019 75.391,296.912 75.391 C 296.804 75.391,297.403 76.094,298.242 76.953 M105.194 79.448 C 105.943 81.697,103.646 90.300,102.142 90.877 C 99.671 91.825,96.620 86.379,98.158 83.764 C 100.814 79.248,104.395 77.051,105.194 79.448 M270.996 81.864 C 269.482 82.686,269.653 82.969,271.191 82.187 C 272.664 81.438,272.924 81.244,272.428 81.266 C 272.231 81.274,271.587 81.544,270.996 81.864 M303.270 84.118 C 303.788 86.182,300.925 90.365,297.865 92.012 C 296.193 92.912,296.106 93.359,297.602 93.359 C 301.071 93.359,305.314 88.042,304.299 84.966 C 303.750 83.304,302.887 82.593,303.270 84.118 M307.227 93.366 C 306.582 93.541,305.358 93.831,304.506 94.010 C 302.719 94.386,301.162 96.211,298.729 100.782 C 297.376 103.323,297.335 103.488,298.204 102.919 C 299.563 102.028,300.391 103.309,300.391 106.305 C 300.391 111.799,301.945 110.772,302.776 104.729 C 303.657 98.329,305.727 96.255,307.928 99.566 C 308.525 100.465,308.541 100.421,308.339 98.395 C 307.974 94.727,310.335 93.294,312.386 95.937 C 314.572 98.755,314.967 99.120,314.036 97.461 C 311.875 93.608,310.153 92.572,307.227 93.366 M149.828 94.707 C 150.646 95.956,150.258 97.112,148.760 97.887 C 144.377 100.153,138.671 100.142,139.118 97.868 C 139.710 94.853,148.269 92.328,149.828 94.707 M312.122 127.523 C 311.823 127.884,311.280 128.101,310.917 128.006 C 310.375 127.865,310.181 128.284,309.841 130.333 C 309.257 133.861,307.237 138.053,305.434 139.481 C 304.630 140.118,303.043 141.711,301.908 143.020 L 299.845 145.402 302.255 144.185 C 304.149 143.230,305.164 142.969,306.992 142.969 C 313.069 142.969,316.425 141.998,319.855 139.247 C 323.835 136.054,325.147 138.002,322.697 143.464 L 321.558 146.002 319.470 145.950 C 318.052 145.915,317.059 146.119,316.372 146.585 L 315.362 147.272 316.845 148.831 C 319.186 151.292,320.636 150.313,323.504 144.337 C 327.151 136.736,324.180 134.053,317.488 138.903 C 312.431 142.569,309.591 142.080,310.892 137.768 C 311.164 136.869,311.528 135.135,311.702 133.916 C 311.875 132.697,312.230 130.813,312.490 129.728 C 313.047 127.406,312.909 126.576,312.122 127.523 M194.964 137.474 C 194.689 137.644,194.522 138.203,194.595 138.716 C 194.775 139.993,196.621 140.060,196.801 138.796 C 196.938 137.831,195.759 136.982,194.964 137.474 M330.589 154.459 C 330.059 155.406,322.270 163.683,316.393 169.544 C 310.772 175.150,308.838 176.358,307.034 175.392 C 306.162 174.925,306.171 174.947,306.075 173.071 C 305.992 171.430,305.070 170.917,305.095 172.526 C 305.139 175.323,306.867 178.121,308.557 178.131 C 311.883 178.151,310.440 182.132,305.366 186.935 C 303.126 189.056,302.802 189.560,302.230 191.818 C 301.880 193.203,300.795 195.881,299.820 197.770 C 297.994 201.306,297.590 203.431,298.585 204.257 C 301.949 207.049,321.579 178.968,320.899 172.336 C 320.630 169.711,320.732 169.514,325.926 162.663 C 329.352 158.145,331.573 154.489,331.149 154.066 C 331.029 153.946,330.777 154.123,330.589 154.459 M70.860 158.041 C 74.553 160.596,85.804 174.298,88.842 179.942 C 89.438 181.049,91.151 183.422,92.648 185.215 C 94.145 187.009,95.865 189.443,96.471 190.625 C 97.076 191.807,98.360 193.843,99.324 195.150 C 102.512 199.477,102.485 199.236,100.083 201.862 C 97.954 204.191,97.420 204.314,95.709 202.875 C 91.297 199.162,68.808 163.864,67.776 159.033 C 67.346 157.017,68.734 156.570,70.860 158.041 M309.329 167.923 C 306.575 170.677,308.219 172.087,312.012 170.222 C 313.061 169.706,313.206 167.949,312.277 167.020 C 311.383 166.126,311.012 166.239,309.329 167.923 M79.939 185.840 C 80.487 186.431,82.479 188.936,84.367 191.406 C 86.254 193.877,89.269 197.684,91.067 199.866 C 97.897 208.155,99.266 213.087,93.377 208.187 L 90.963 206.178 91.813 207.844 C 92.875 209.926,92.675 211.982,91.226 213.882 C 89.193 216.547,87.360 215.753,78.914 208.547 C 68.407 199.583,63.053 195.737,54.207 190.798 C 46.389 186.434,45.865 185.547,51.105 185.547 C 54.561 185.547,58.719 186.572,62.042 188.243 C 63.261 188.856,65.488 189.841,66.992 190.431 C 71.225 192.092,74.519 193.925,77.930 196.516 C 79.648 197.823,81.582 199.267,82.227 199.727 L 83.398 200.562 82.385 199.207 C 80.812 197.103,80.469 196.293,79.266 191.845 C 77.550 185.504,77.774 183.504,79.939 185.840 M138.636 186.505 C 141.355 187.911,141.149 191.171,138.275 192.222 C 134.250 193.695,133.878 193.638,131.135 191.130 C 129.774 189.885,128.320 188.668,127.904 188.425 C 125.478 187.004,135.972 185.127,138.636 186.505 M105.773 193.005 C 108.083 196.816,108.292 200.000,106.233 200.000 C 103.837 200.000,102.366 197.395,102.352 193.132 C 102.340 189.044,103.349 189.007,105.773 193.005 M317.383 201.950 C 307.209 206.976,304.322 209.450,303.992 213.422 L 303.818 215.523 305.132 215.729 C 307.297 216.069,313.793 212.725,317.969 209.121 C 330.627 198.197,330.408 195.515,317.383 201.950 M31.641 221.138 C 19.344 222.035,28.218 227.628,51.741 233.808 C 56.753 235.124,57.813 235.673,57.813 236.951 C 57.813 237.758,57.978 237.922,58.691 237.820 C 59.391 237.721,59.570 237.444,59.570 236.460 C 59.570 234.221,61.413 233.758,66.992 234.596 C 79.073 236.410,79.355 236.362,76.360 233.008 C 73.511 229.816,74.181 228.019,78.835 226.371 C 81.373 225.473,82.007 224.263,80.395 223.395 C 78.030 222.124,41.391 220.427,31.641 221.138 M161.908 227.350 C 161.065 228.214,159.652 229.270,158.768 229.698 C 157.884 230.126,156.736 230.939,156.217 231.505 C 155.698 232.070,154.286 233.167,153.080 233.942 C 150.210 235.786,149.480 236.723,146.204 242.773 C 142.540 249.541,142.319 250.315,141.602 258.848 C 140.470 272.322,140.082 272.722,133.398 267.296 C 123.324 259.117,117.809 255.107,117.315 255.602 C 116.842 256.075,120.313 260.956,126.111 267.969 C 128.153 270.439,130.733 273.867,131.844 275.586 C 132.955 277.305,134.182 278.975,134.571 279.297 C 134.960 279.619,136.193 281.025,137.312 282.422 C 138.431 283.818,140.536 286.279,141.988 287.891 C 143.441 289.502,144.989 291.557,145.428 292.458 C 145.964 293.555,147.042 294.681,148.698 295.872 C 150.057 296.850,151.808 298.539,152.589 299.627 C 153.371 300.715,154.646 302.031,155.423 302.552 C 157.901 304.214,166.251 312.304,183.984 330.222 C 195.835 342.196,199.834 345.491,197.443 341.309 C 196.204 339.142,196.207 337.506,197.451 336.338 L 198.417 335.430 192.470 329.247 C 176.082 312.209,167.033 301.944,165.415 298.557 C 164.107 295.819,163.767 295.443,160.951 293.632 C 160.135 293.107,158.812 291.477,157.618 289.528 C 156.391 287.524,154.711 285.469,153.195 284.119 C 147.578 279.116,146.533 272.524,151.007 270.313 C 153.712 268.976,154.254 268.517,156.311 265.820 C 160.407 260.451,161.829 259.723,165.781 260.970 C 166.404 261.167,167.045 261.328,167.206 261.328 C 167.367 261.328,167.175 260.054,166.780 258.496 C 166.385 256.938,165.682 253.658,165.216 251.206 C 164.751 248.754,164.038 245.970,163.631 245.021 C 162.436 242.235,162.636 241.140,164.864 238.281 C 165.450 237.529,166.222 236.005,166.580 234.893 C 166.937 233.782,167.490 232.657,167.808 232.393 C 168.674 231.675,174.299 229.297,175.133 229.297 C 175.533 229.297,174.888 228.785,173.699 228.160 C 171.782 227.152,171.265 227.047,169.144 227.239 C 167.101 227.425,166.585 227.334,165.618 226.619 C 164.063 225.469,163.668 225.547,161.908 227.350 M61.727 228.491 C 73.150 231.904,76.172 233.055,76.172 233.993 C 76.172 234.621,73.299 234.427,70.647 233.620 C 69.281 233.205,66.668 232.515,64.840 232.087 C 58.732 230.658,56.089 229.334,56.858 228.090 C 57.206 227.526,58.991 227.673,61.727 228.491 M217.273 231.023 C 216.880 231.886,214.390 233.300,212.377 233.806 C 210.478 234.282,210.046 235.177,208.232 242.383 C 207.854 243.887,206.684 246.753,205.633 248.753 L 203.721 252.388 203.469 258.128 C 203.118 266.104,203.640 266.959,208.015 265.574 C 209.734 265.030,210.971 264.894,212.695 265.060 C 214.856 265.269,215.191 265.189,216.986 264.039 C 218.341 263.171,219.658 262.702,221.321 262.496 C 222.636 262.333,224.094 261.995,224.561 261.744 C 225.029 261.494,226.726 261.166,228.333 261.016 L 231.253 260.742 229.362 257.793 C 226.766 253.745,225.898 253.125,222.829 253.125 C 219.982 253.125,220.238 253.523,218.747 246.781 C 217.826 242.614,217.878 242.184,219.784 238.091 C 221.400 234.620,220.922 231.369,218.670 230.513 C 217.823 230.191,217.618 230.266,217.273 231.023 M322.757 231.083 C 322.894 231.313,322.752 231.992,322.441 232.592 C 321.711 233.998,321.727 234.091,322.607 233.620 C 323.613 233.082,323.888 231.783,323.127 231.167 C 322.786 230.890,322.619 230.852,322.757 231.083 M41.211 238.267 C 49.130 239.027,47.716 242.532,39.655 242.125 C 36.211 241.951,34.552 240.901,35.450 239.463 C 35.842 238.836,35.829 238.738,35.376 238.912 C 30.382 240.828,41.179 245.236,51.346 245.432 C 58.032 245.561,59.777 244.244,57.435 240.840 C 56.114 238.920,56.201 238.941,47.070 238.281 C 41.160 237.853,36.787 237.843,41.211 238.267 M66.602 252.734 C 65.957 252.905,64.463 253.401,63.281 253.837 L 61.133 254.630 63.353 254.659 C 69.106 254.733,70.598 258.313,65.662 260.199 C 59.514 262.548,48.981 261.160,51.226 258.296 C 51.707 257.682,51.693 257.668,51.074 258.153 C 47.752 260.759,53.688 262.761,63.672 262.403 C 69.376 262.198,70.635 261.892,71.555 260.485 C 72.843 258.515,72.787 257.965,71.145 256.446 C 70.295 255.660,69.483 254.549,69.340 253.977 C 69.196 253.405,68.873 252.807,68.621 252.647 C 68.105 252.318,68.184 252.315,66.602 252.734 M82.227 271.956 C 76.566 276.181,68.604 278.202,67.586 275.672 C 67.366 275.126,67.228 275.030,67.212 275.414 C 67.060 279.168,83.057 277.148,84.863 273.184 C 85.734 271.273,84.137 270.529,82.227 271.956 M97.515 281.451 C 94.589 282.456,88.969 287.548,88.435 289.675 C 87.648 292.812,91.166 292.384,99.724 288.304 C 105.759 285.425,108.027 282.031,103.913 282.031 C 103.359 282.031,101.997 281.796,100.887 281.508 C 99.290 281.094,98.588 281.082,97.515 281.451 M98.625 282.799 C 98.961 283.343,97.388 286.304,95.954 287.826 C 93.403 290.535,89.844 291.249,89.844 289.052 C 89.844 286.541,97.547 281.055,98.625 282.799 M116.387 286.197 C 113.609 288.706,110.943 293.875,111.508 295.655 C 112.442 298.597,120.143 294.098,122.257 289.375 C 123.901 285.704,119.543 283.346,116.387 286.197 M126.810 291.825 C 125.741 292.666,125.382 294.493,126.270 294.578 C 128.004 294.742,129.297 293.695,129.297 292.127 C 129.297 290.758,128.319 290.639,126.810 291.825 " stroke="none" fill="#42b7bf" fill-rule="evenodd"></path></g></svg>