<svg xmlns="http://www.w3.org/2000/svg" xmlns:xlink="http://www.w3.org/1999/xlink" version="1.1" x="0px" y="0px" viewBox="0 0 100 125" style="enable-background:new 0 0 100 100;" xml:space="preserve"><path d="M94.845,85.124c-0.117-0.76-0.374-1.542-0.749-2.211c-1.271-2.265-3.121-3.962-5.416-5.171  c-0.302-0.159-0.641-0.248-0.962-0.37c0.249,0.423,0.562,0.654,0.865,0.898c1.482,1.192,2.851,2.494,3.773,4.184  c1.342,2.46,0.949,4.168-1.294,5.803c-0.058,0.042-0.114,0.087-0.169,0.132c-0.514,0.426-1.08,0.41-1.674,0.265  c0.003-0.105-0.01-0.161,0.007-0.172c0.297-0.191,0.599-0.373,0.897-0.563c1.583-1.009,2.269-2.709,1.856-4.417  c-0.318-1.315-1.489-1.938-2.322-2.773c-0.737-0.739-2.523-0.045-3.051,0.925c-0.512,0.94-0.146,1.763,1.09,2.456  c0.02,0.012,0.016,0.066,0.049,0.224c-0.45,0.126-0.908,0.27-1.375,0.38c-0.859,0.202-1.494-0.054-1.981-0.843  c-0.635-1.027-1.366-1.995-2.091-3.039c0.492-0.658,0.975-1.364,1.521-2.017c0.549-0.656,1.16-1.259,1.744-1.885  c-2.626-0.011-3.93,1.598-4.883,3.757c-0.134-0.441-0.256-0.886-0.114-1.217c0.289-0.675,0.642-1.356,1.111-1.915  c0.794-0.946,1.699-1.798,2.557-2.69c-0.056-0.064-4.153,0.168-5.887,4.505c-1.334-0.685-1.882-1.648-1.539-2.903  c0.251-0.917,0.622-1.823,1.081-2.656c0.44-0.797,1.061-1.494,1.603-2.235c-2.309,0.412-3.722,1.928-4.763,3.98  c-0.544-0.336-1.01-0.661-1.509-0.926c-0.614-0.326-0.808-0.841-0.84-1.492c-0.046-0.934,0.243-1.772,0.745-2.521  c0.462-0.69,1.018-1.318,1.646-2.119c-1.713,0.718-3.021,1.71-4.156,2.992c-0.597-0.327-1.134-0.602-1.653-0.908  c-0.983-0.58-1.199-1.138-0.751-2.189c0.19-0.446,0.509-0.859,0.845-1.216c0.803-0.855,1.651-1.667,2.559-2.575  c-2.194,0.286-3.725,1.48-5.019,3.17c-0.773-0.539-1.458-1.016-2.127-1.482c0.683-1.979,1.912-3.417,3.24-4.814  c-1.885,0.346-3.386,1.282-4.599,2.729c-0.479-0.223-0.887-0.412-1.276-0.593c0.266-2.362,1.5-4.016,3.295-5.34  c-2.23,0.257-3.794,1.52-5.012,3.269c-0.739-0.755-0.796-1.113-0.321-1.994c0.998-1.851,2.543-3.044,4.533-3.675  c0.195-0.063,0.444-0.115,0.623-0.049c1.129,0.413,2.242,0.866,3.178,1.814c-1.258,0.824-2.794,1.269-3.316,3.106  c1.221-0.9,2.447-0.956,3.691-0.934c0.142,0.003,0.303,0.022,0.423-0.035c1.369-0.647,2.159,0.311,3.137,1.025  c-2.589,1.081-3.729,2.047-4.209,3.407c0.881-0.431,1.862-0.924,2.858-1.385c0.251-0.116,0.592-0.248,0.82-0.168  c1.159,0.408,2.295,0.883,3.59,1.395c-1.085,0.947-2.2,1.544-2.728,2.867c3.125-1.772,3.925-0.936,6.333,1.12  c-0.688,0.785-1.706,1.303-2.153,2.502c0.284-0.116,0.413-0.163,0.537-0.22c2.18-0.994,3.264-0.739,4.859,1.114  c-0.549,0.779-1.092,1.549-1.721,2.441c1.004-0.278,1.814-0.529,2.639-0.714c0.236-0.053,0.585,0.003,0.762,0.152  c1.121,0.946,2.209,1.932,3.327,2.923c0.022-0.075,0.087-0.201,0.094-0.329c0.081-1.415-0.699-2.328-1.784-3.076  c-0.277-0.191-0.623-0.417-0.726-0.703c-0.523-1.456-1.619-2.299-2.926-2.968c-0.301-0.154-0.573-0.389-0.814-0.632  c-0.947-0.956-1.882-1.926-2.811-2.9c-0.385-0.404-0.806-0.793-1.103-1.258c-0.863-1.351-1.873-2.509-3.418-3.108  c-0.244-0.094-0.522-0.282-0.635-0.503c-0.619-1.207-1.656-1.925-2.795-2.559c-0.318-0.177-0.677-0.436-0.817-0.748  c-0.429-0.955-1.082-1.715-1.981-2.171c-0.821-0.416-0.987-0.991-0.92-1.816c0.072-0.886,0.098-1.785,0.038-2.671  c-0.099-1.451-1.166-2.314-2.131-3.211c-2.82-2.622-5.743-5.14-8.459-7.865c-7.654-7.68-15.231-15.437-22.824-23.178  c-2.497-2.546-4.929-5.156-7.434-7.695c-0.685-0.695-1.52-1.24-2.289-1.851c-0.153-0.22-0.276-0.474-0.471-0.649  c-1.142-1.023-2.528-1.063-3.938-0.899c-2.088,0.243-4.192,0.426-6.251,0.826C11.096,6.558,9.616,7.041,8.226,7.65  c-2.111,0.924-2.942,2.799-3.119,4.979c-0.047,0.579,0.05,1.24,0.299,1.758c0.443,0.922,0.947,1.857,1.615,2.622  c2.064,2.364,4.162,4.702,6.344,6.956c6.728,6.948,13.906,13.426,21.019,19.97c1.706,1.57,3.36,3.195,5.021,4.812  c0.919,0.895,1.841,1.792,2.692,2.751c1.798,2.027,3.579,4.072,5.313,6.155c1.247,1.498,2.808,2.384,4.7,2.729  c1.472,0.269,2.948,0.518,4.421,0.782c0.668,0.12,1.302,0.258,1.65,0.979c0.123,0.255,0.466,0.439,0.748,0.574  c0.397,0.19,0.695,0.398,0.881,0.842c0.328,0.783,0.934,1.321,1.729,1.663c0.264,0.114,0.602,0.334,0.673,0.575  c0.443,1.508,1.619,2.291,2.851,3.04c0.265,0.162,0.64,0.306,0.741,0.55c0.678,1.641,2.057,2.485,3.518,3.27  c0.277,0.149,0.6,0.427,0.675,0.707c0.528,1.956,1.953,3.02,3.693,3.725c0.585,0.237,0.896,0.524,1.098,1.118  c0.674,1.982,3.518,4.278,5.767,3.749c0.54,1.292,1.815,1.831,2.886,2.624c-0.638,0.055-1.209,0.036-1.76-0.081  c-4.985-1.06-9.537-3.153-13.737-5.986c-1.253-0.845-2.275-2.041-3.371-3.109c-0.454-0.442-0.666-0.963-0.302-1.627  c0.362-0.661,0.061-1.245-0.43-1.731c-0.721-0.715-1.72-0.781-2.644-0.173c-0.751,0.494-1.489,1.007-2.352,1.592  c-0.024,0.475,0.26,0.927,0.842,1.172c0.574,0.241,1.166,0.174,1.598-0.256c0.448-0.446,0.758-1.029,1.19-1.494  c0.185-0.199,0.592-0.41,0.781-0.332c0.274,0.113,0.616,0.486,0.612,0.743c-0.005,0.379-0.217,0.819-0.476,1.112  c-0.27,0.306-0.702,0.47-1.063,0.696c-1.583,0.992-2.374,0.95-3.904-0.113c-0.863-0.599-1.217-1.369-1.003-2.391  c0.169-0.81,0.938-1.486,1.936-1.594c0.615-0.067,1.247,0.022,1.815,0.04c-0.242-0.358-0.532-0.657-0.669-1.015  c-0.36-0.942-1.185-1.407-2.208-1.168c-1.087,0.254-1.549,0.95-1.397,2.022c0.041,0.286,0.011,0.626-0.109,0.884  c-1.303,2.811,0.411,5.746,3.522,5.94c0.603,0.038,0.935,0.244,1.275,0.742c1.565,2.296,3.102,4.62,4.812,6.807  c2.213,2.831,4.878,5.195,8.037,6.964c2.237,1.253,4.622,2.054,7.168,2.354c3.265,0.384,6.094-1.3,7.335-4.341  c0.049-0.122,0.128-0.232,0.179-0.322c0.45,0.053,0.838,0.122,1.228,0.14C93.188,90.189,95.279,87.93,94.845,85.124z M59.288,57.496  c-0.283,0.283-0.837,0.483-1.232,0.436c-1.658-0.197-3.318-0.432-4.948-0.785c-1.848-0.4-3.209-1.68-4.542-2.907  c-1.386-1.276-2.657-2.679-4.025-3.989c0.862,1.666,2.261,2.919,3.428,4.349c1.214,1.487,2.659,2.715,4.435,3.444  c1.711,0.702,3.488,1.243,5.477,1.939c-0.412,0.006-0.598,0.046-0.766,0.006c-1.455-0.344-2.903-0.719-4.36-1.052  c-1.96-0.448-3.5-1.564-4.813-3.019c-1.744-1.932-3.389-3.957-5.187-5.837c-2.956-3.091-5.957-6.141-9.017-9.128  c-5.358-5.232-10.753-10.427-16.177-15.59c-3.047-2.9-6.221-5.668-9.259-8.578c-0.882-0.846-1.563-1.933-2.195-2.994  c-0.319-0.537-0.325-1.261-0.349-1.95c1.325,2.832,21.666,20.734,22.159,20.874c-0.351-0.421-11.704-12.291-17.494-17.331  c-0.833-0.725-1.613-1.511-2.398-2.289c-0.302-0.299-0.574-0.637-0.813-0.99c-0.895-1.323-0.779-1.762,0.573-2.64  c1.871-1.215,3.998-1.654,6.131-2.102c1.705-0.358,3.404-0.75,5.092-1.183c1.276-0.327,2.465-0.245,3.593,0.462  c0.208,0.13,0.429,0.239,0.644,0.359C33.912,19.257,44.46,31.626,56.448,42.648c1.939,1.783,4.038,3.392,6.066,5.078  c0.302,0.251,0.637,0.462,0.93,0.721c1.222,1.081,2.114,2.312,1.887,4.077c-0.068,0.525-0.041,1.062-0.053,1.451  c-0.379,0.376-0.646,0.69-0.963,0.939c-0.237,0.185-0.525,0.356-0.814,0.415C61.889,55.657,60.471,56.311,59.288,57.496z   M60.252,70.411c-0.758,0.032-1.381,0.059-2.021,0.086C58.684,69.528,59.498,69.456,60.252,70.411z M65.083,80.907  c-0.341-0.393-0.804-0.678-1.164-1.057c-0.438-0.461-0.887-0.932-1.224-1.467c-0.632-1.003-0.599-1.023,0.171-1.875  c6.239,7.155,13.655,12.076,23.575,12.508c-0.418,1.248-1.274,1.824-2.343,2.118c-1.551,0.427-3.118,0.282-4.658-0.058  c-2.042-0.451-3.902-1.35-5.644-2.488C70.522,86.449,67.646,83.856,65.083,80.907z M88.259,90.352  c-1.054,2.27-3.364,3.667-6.012,3.382c-1.47-0.159-2.976-0.445-4.345-0.983c-3.364-1.322-6.158-3.509-8.476-6.323  c0.269,0.227,0.539,0.454,0.808,0.68c2.812,2.364,5.858,4.302,9.528,5.014c1.074,0.208,2.192,0.335,3.281,0.286  c2.236-0.099,3.976-1.018,4.641-3.413C88.54,89.265,88.553,89.721,88.259,90.352z M82.869,87.591  c-5.027-0.753-9.426-2.884-13.275-6.183c-0.136-0.116-0.762-0.594-0.915-0.691c0.041-0.058,0.757,0.165,0.815,0.194  c1.693,0.829,3.392,1.647,5.07,2.507c2.579,1.322,5.238,2.405,8.125,2.839c1.618,0.243,3.198,0.118,4.702-0.568  c0.645-0.295,1.177-0.732,1.157-1.512c-0.006-0.257-0.248-0.509-0.496-0.978c0.262-0.737,1.216-0.749,1.91-1.103  c0.164-0.084,0.643,0.238,0.846,0.483c0.773,0.933,0.424,2.729-0.682,3.365C87.884,87.234,85.486,87.983,82.869,87.591z"/><path d="M52.263,42.216c0.324-0.176,0.601-0.565,0.732-0.919c0.068-0.183-0.238-0.729-0.359-0.724c-1.09,0.046-1.752-0.585-2.31-1.4  c-0.596,0.677-0.611,1.577-0.087,2.32C50.725,42.183,51.63,42.56,52.263,42.216z"/><path d="M23.741,24.124c-0.648,0.555-0.715,1.146-0.116,1.979c0.672,0.935,1.793,1.349,2.465,0.898  c0.142-0.095,0.336-0.246,0.343-0.38c0.015-0.278,0.022-0.697-0.144-0.82C25.486,25.208,24.624,24.693,23.741,24.124z"/><path d="M42.234,41.765c-0.519,0.909-0.515,1.717-0.264,2.502c0.228,0.709,1.095,1.119,1.831,0.98  c0.697-0.131,0.973-0.479,1.043-1.316C42.819,43.492,42.819,43.492,42.234,41.765z"/><path d="M51.583,44.291c-1.324,0.312-2.245-0.292-2.92-1.397c-0.539,0.879-0.457,1.462,0.257,2.212  c0.645,0.678,1.595,0.935,2.215,0.561C51.631,45.368,51.916,44.958,51.583,44.291z"/><path d="M57.942,51.809c-0.605,1.235-0.081,2.653,1.089,3.191c0.964,0.443,1.661,0.005,1.808-1.3  C59.165,54.121,58.668,52.805,57.942,51.809z"/><path d="M53.793,53.297c-0.729-0.459-1.497-0.857-2.302-1.308c-0.49,0.415-0.565,0.585-0.412,1.106  c0.267,0.916,1.66,1.753,2.566,1.479c0.261-0.078,0.588-0.362,0.632-0.599C54.313,53.78,54.022,53.441,53.793,53.297z"/><path d="M29.464,31.572c0.776,0.177,1.253-0.233,1.304-1.03c-0.854-0.632-1.662-1.231-2.541-1.882  C27.717,29.901,28.385,31.326,29.464,31.572z"/><path d="M11.111,11.285c-0.714,0.865-0.784,1.476-0.384,2.2c0.362,0.658,0.994,1.004,1.677,0.889  c0.666-0.113,1.011-0.533,1.181-1.373C12.193,13.273,11.492,12.561,11.111,11.285z"/><path d="M38.327,38.944c-0.418-0.266-0.613-0.881-0.958-1.426c-0.48,1.017-0.404,2.041,0.166,2.632  c0.468,0.486,1.042,0.607,1.661,0.374c0.54-0.202,0.892-0.565,0.756-1.292C39.403,39.151,38.756,39.218,38.327,38.944z"/><path d="M53.303,47.177c-0.634,0.658-0.419,1.189-0.132,1.664c0.45,0.744,1.106,1.209,2.022,1.113  c0.659-0.068,1.103-0.411,1.208-1.235C55.131,48.722,54.003,48.428,53.303,47.177z"/><path d="M43.393,32.199c-0.906-0.565-1.723-1.074-2.605-1.624c-0.407,1.124,0.048,2.206,1.008,2.645  C42.788,33.674,43.479,33.153,43.393,32.199z"/><path d="M33.432,33.12c-0.822,0.581-1.001,1.277-0.638,2.067c0.31,0.678,0.991,1.082,1.604,0.952  c0.621-0.132,0.836-0.495,0.774-1.446C34.031,34.919,33.644,34.162,33.432,33.12z"/><path d="M46.239,37.636c0.358,0.207,0.901,0.296,1.293,0.19c0.515-0.139,0.706-0.643,0.586-1.369  c-1.417,0.55-1.631-1.025-2.546-1.35C45.137,36.097,45.379,37.139,46.239,37.636z"/><path d="M44.847,39.504c-0.502-0.217-0.87-0.747-1.265-1.111c-0.291,1.232,0.357,2.471,1.438,2.651  c0.92,0.153,1.441-0.311,1.54-1.446C45.93,39.579,45.317,39.708,44.847,39.504z"/><path d="M25.411,20.117c-0.379,1.483,0.172,2.613,1.204,2.926c0.878,0.266,1.426-0.203,1.392-1.282  C26.91,21.781,26.124,21.166,25.411,20.117z"/><path d="M21.541,11.473c0.524-0.019,0.939-0.227,1.023-0.751c0.091-0.563-0.401-0.667-0.809-0.806  c-0.554-0.189-1.103-0.392-1.742-0.621C19.461,10.439,20.199,11.524,21.541,11.473z"/><path d="M39.234,33.614c-0.401,0.874-0.264,1.613,0.338,2.173c0.451,0.42,0.984,0.595,1.55,0.302  c0.564-0.292,0.793-0.769,0.496-1.521C40.546,35.062,39.849,34.433,39.234,33.614z"/><path d="M30.013,19.558c0.449-0.003,0.875-0.135,0.975-0.642c0.102-0.517-0.375-0.526-0.681-0.638  c-0.775-0.282-1.544-0.558-1.912-1.677C27.806,18.228,28.666,19.57,30.013,19.558z"/><path d="M60.895,49.308c-0.421-0.212-0.831-0.448-1.355-0.733c-0.372,0.64-0.203,1.217,0.258,1.728  c0.476,0.527,1.083,0.835,1.802,0.681c0.225-0.049,0.517-0.317,0.561-0.53c0.044-0.21-0.125-0.554-0.311-0.702  C61.583,49.54,61.21,49.466,60.895,49.308z"/><path d="M47.13,46.99c-0.569,0.812-0.666,1.564-0.193,2.337c0.307,0.502,0.809,0.683,1.373,0.609c0.564-0.074,0.98-0.352,1.06-1.088  c-0.576-0.148-1.183-0.144-1.544-0.439C47.475,48.122,47.376,47.528,47.13,46.99z"/><path d="M18.57,13.632c-0.45-0.329-0.762-0.846-1.165-1.318c-0.419,1.041-0.165,2.085,0.549,2.543  c0.675,0.433,1.371,0.285,2.174-0.587C19.559,14.049,18.991,13.941,18.57,13.632z"/><path d="M19.715,20.068c-0.395,1.043-0.123,2.097,0.554,2.512c0.46,0.283,0.953,0.34,1.391-0.03c0.387-0.326,0.576-0.728,0.17-1.269  C20.887,21.503,20.278,20.943,19.715,20.068z"/><path d="M30.068,24.99c-0.513,0.621-0.541,1.031-0.115,1.663c0.437,0.647,1.138,0.945,1.728,0.711  c0.545-0.216,0.704-0.623,0.641-0.897C31.424,25.878,30.744,25.433,30.068,24.99z"/><path d="M55.17,43.731c-0.138,0.292-0.348,0.582-0.41,0.902c-0.163,0.839,0.604,1.829,1.401,1.772  c0.299-0.022,0.624-0.272,0.845-0.505c0.094-0.1,0.028-0.503-0.101-0.632C56.406,44.769,55.851,44.324,55.17,43.731z"/><path d="M37.504,28.957c0.478,0.172,0.928,0.105,1.248-0.302c0.334-0.425,0.392-0.879-0.095-1.37  c-0.995,0.853-1.445-0.402-2.198-0.588C36.207,27.69,36.665,28.656,37.504,28.957z"/><path d="M15.322,16.074c-0.245,0.953,0.042,1.952,0.721,2.269c0.34,0.159,0.843,0.191,1.187,0.058  c0.403-0.155,0.584-0.592,0.328-1.141C16.503,17.567,16.048,16.581,15.322,16.074z"/><path d="M23.293,17.401c-1.072,0.177-1.529-0.509-1.846-1.381c-0.589,0.754-0.639,1.321-0.22,1.982  c0.332,0.524,0.791,0.862,1.428,0.702C23.213,18.564,23.462,18.159,23.293,17.401z"/><path d="M34.682,29.508c-0.355,0.559-0.117,1.125,0.217,1.658c0.32,0.508,0.784,0.869,1.414,0.785  c0.583-0.078,0.841-0.444,0.761-0.752C36.145,30.542,35.444,30.047,34.682,29.508z"/><path d="M25.068,15.58c0.396,0.185,0.96,0.21,1.383,0.085c0.429-0.127,0.56-0.595,0.312-1.193c-0.95,0.308-1.668-0.106-2.349-0.696  C24.289,14.73,24.43,15.282,25.068,15.58z"/><path d="M34.369,23.434c-0.707-0.334-1.416-0.669-2.188-1.033c-0.181,0.82,0.107,1.421,0.845,1.694  C33.655,24.328,34.031,24.143,34.369,23.434z"/><text x="0" y="115" fill="#000000" font-size="5px" font-weight="bold" font-family="'Helvetica Neue', Helvetica, Arial-Unicode, Arial, Sans-serif">Created by sobinsergey</text><text x="0" y="120" fill="#000000" font-size="5px" font-weight="bold" font-family="'Helvetica Neue', Helvetica, Arial-Unicode, Arial, Sans-serif">from the Noun Project</text></svg>